<svg xmlns="http://www.w3.org/2000/svg" width="100" height="140" viewBox="0 0 100 140">
  <defs>
    <radialGradient id="ll-glow" cx="50%" cy="50%" r="50%">
      <stop offset="0%" stop-color="#FFE6A6" stop-opacity="0.95"></stop>
      <stop offset="34%" stop-color="#F2A937" stop-opacity="0.5"></stop>
      <stop offset="66%" stop-color="#D6611A" stop-opacity="0.16"></stop>
      <stop offset="100%" stop-color="#D6611A" stop-opacity="0"></stop>
    </radialGradient>
    <radialGradient id="ll-flameCore" cx="50%" cy="62%" r="60%">
      <stop offset="0%" stop-color="#FFFBEC"></stop>
      <stop offset="38%" stop-color="#FFE38C"></stop>
      <stop offset="100%" stop-color="#FBB13C"></stop>
    </radialGradient>
    <linearGradient id="ll-flameBody" x1="0" y1="0" x2="0" y2="1">
      <stop offset="0%" stop-color="#FFD66A"></stop>
      <stop offset="48%" stop-color="#F58A1F"></stop>
      <stop offset="100%" stop-color="#C53910"></stop>
    </linearGradient>
    <linearGradient id="ll-metal" x1="0" y1="0" x2="0" y2="1">
      <stop offset="0%" stop-color="#FBEBA8"></stop>
      <stop offset="40%" stop-color="#E0B43A"></stop>
      <stop offset="72%" stop-color="#B7891E"></stop>
      <stop offset="100%" stop-color="#7E5C12"></stop>
    </linearGradient>
    <linearGradient id="ll-metalV" x1="0" y1="0" x2="1" y2="0">
      <stop offset="0%" stop-color="#8A6716"></stop>
      <stop offset="22%" stop-color="#F4DC8E"></stop>
      <stop offset="50%" stop-color="#D9AE34"></stop>
      <stop offset="80%" stop-color="#9A7318"></stop>
      <stop offset="100%" stop-color="#6F500F"></stop>
    </linearGradient>
    <linearGradient id="ll-glass" x1="0" y1="0" x2="1" y2="1">
      <stop offset="0%" stop-color="#13212F"></stop>
      <stop offset="50%" stop-color="#1B2E3F"></stop>
      <stop offset="100%" stop-color="#0C151E"></stop>
    </linearGradient>
    <linearGradient id="ll-sheen" x1="0" y1="0" x2="1" y2="1">
      <stop offset="0%" stop-color="#FFFFFF" stop-opacity="0.22"></stop>
      <stop offset="55%" stop-color="#FFFFFF" stop-opacity="0"></stop>
    </linearGradient>
    <filter id="ll-soft" x="-60%" y="-60%" width="220%" height="220%"><feGaussianBlur stdDeviation="2.1"></feGaussianBlur></filter>
    <filter id="ll-haloBlur" x="-80%" y="-80%" width="260%" height="260%"><feGaussianBlur stdDeviation="3.4"></feGaussianBlur></filter>
  </defs>

  <g filter="url(#ll-haloBlur)">
    <circle cx="50" cy="78" r="46" fill="url(#ll-glow)">
      
    </circle>
  </g>

  <g opacity="0.42" fill="#FBC85A" filter="url(#ll-haloBlur)">
    
    <path d="M50 78 L44 14 L56 14 Z" opacity="0.5"></path>
    <path d="M50 78 L92 48 L99 60 Z" opacity="0.3"></path>
    <path d="M50 78 L8 48 L1 60 Z" opacity="0.3"></path>
    <path d="M50 78 L42 136 L58 136 Z" opacity="0.4"></path>
    <path d="M50 78 L84 98 L90 110 Z" opacity="0.22"></path>
    <path d="M50 78 L16 98 L10 110 Z" opacity="0.22"></path>
  </g>

  <path d="M36 24 C36 8 64 8 64 24" fill="none" stroke="url(#ll-metal)" stroke-width="4.6" stroke-linecap="round"></path>
  <path d="M36 24 C36 8 64 8 64 24" fill="none" stroke="#FBEBA8" stroke-width="1.4" stroke-linecap="round" opacity="0.55"></path>
  <ellipse cx="50" cy="9.5" rx="5.5" ry="3.4" fill="none" stroke="url(#ll-metal)" stroke-width="3"></ellipse>

  <rect x="45.5" y="18" width="9" height="6" rx="2" fill="url(#ll-metal)"></rect>
  <path d="M31 40 L69 40 L62 28 L38 28 Z" fill="url(#ll-metal)" stroke="#6F500F" stroke-width="1" stroke-linejoin="round"></path>
  <path d="M38 28 L62 28 L59.6 32 L40.4 32 Z" fill="#FBEBA8" opacity="0.5"></path>
  <line x1="50" y1="29" x2="50" y2="40" stroke="#7E5C12" stroke-width="1" opacity="0.6"></line>

  <rect x="33" y="40" width="34" height="62" rx="8" fill="url(#ll-glass)" stroke="url(#ll-metalV)" stroke-width="4.2"></rect>

  <g>
    
    <path d="M50 52 C61 64 60 78 55 86 C53 90 56 92 50 95 C44 92 47 90 45 86 C40 78 39 64 50 52 Z" fill="url(#ll-flameBody)" filter="url(#ll-soft)" opacity="0.85">
      
    </path>
    <path d="M50 56 C58 66 57 77 53 84 C51.5 87 54 89 50 91.5 C46 89 48.5 87 47 84 C43 77 42 66 50 56 Z" fill="url(#ll-flameBody)"></path>
    <path d="M50 64 C54 70 53.5 78 51 82.5 C50.2 84 51 85 50 86.5 C49 85 49.8 84 49 82.5 C46.5 78 46 70 50 64 Z" fill="url(#ll-flameCore)">
      
    </path>
  </g>

  <line x1="33.5" y1="71" x2="66.5" y2="71" stroke="url(#ll-metalV)" stroke-width="2.4" opacity="0.92"></line>
  <line x1="50" y1="41" x2="50" y2="101" stroke="url(#ll-metalV)" stroke-width="2" opacity="0.5"></line>
  <path d="M37 46 Q44 44 46 52 L42 92 Q37 90 37 80 Z" fill="url(#ll-sheen)"></path>

  <path d="M34 102 L66 102 L61 112 L39 112 Z" fill="url(#ll-metal)" stroke="#6F500F" stroke-width="1" stroke-linejoin="round"></path>
  <rect x="40" y="112" width="20" height="6" rx="2.4" fill="url(#ll-metal)" stroke="#6F500F" stroke-width="0.8"></rect>
  <rect x="44" y="118" width="12" height="4" rx="1.6" fill="url(#ll-metalV)"></rect>
</svg>